<?xml version="1.0" encoding="UTF-8" standalone="no"?>
<!DOCTYPE svg PUBLIC "-//W3C//DTD SVG 1.1//EN"
 "http://www.w3.org/Graphics/SVG/1.1/DTD/svg11.dtd">
<!-- Generated by graphviz version 2.46.0 (20210118.1747)
 -->
<!-- Title: G Pages: 1 -->
<svg width="842pt" height="1622pt"
 viewBox="0.00 0.00 842.00 1622.00" xmlns="http://www.w3.org/2000/svg" xmlns:xlink="http://www.w3.org/1999/xlink">
<g id="graph0" class="graph" transform="scale(1 1) rotate(0) translate(4 1618)">
<title>G</title>
<polygon fill="white" stroke="transparent" points="-4,4 -4,-1618 838,-1618 838,4 -4,4"/>
<g id="clust1" class="cluster">
<title>cluster_Global</title>
<path fill="none" stroke="gray" d="M20,-8C20,-8 814,-8 814,-8 820,-8 826,-14 826,-20 826,-20 826,-1594 826,-1594 826,-1600 820,-1606 814,-1606 814,-1606 20,-1606 20,-1606 14,-1606 8,-1600 8,-1594 8,-1594 8,-20 8,-20 8,-14 14,-8 20,-8"/>
<text text-anchor="middle" x="417" y="-1593.2" font-family="Times,serif" font-size="11.00" fill="gray">Global</text>
</g>
<g id="clust2" class="cluster">
<title>cluster_\IIIF</title>
<path fill="none" stroke="gray" d="M28,-16C28,-16 806,-16 806,-16 812,-16 818,-22 818,-28 818,-28 818,-1566 818,-1566 818,-1572 812,-1578 806,-1578 806,-1578 28,-1578 28,-1578 22,-1578 16,-1572 16,-1566 16,-1566 16,-28 16,-28 16,-22 22,-16 28,-16"/>
<text text-anchor="middle" x="417" y="-1565.2" font-family="Times,serif" font-size="11.00" fill="gray">IIIF</text>
</g>
<g id="clust3" class="cluster">
<title>cluster_\IIIF\PresentationAPI</title>
<path fill="none" stroke="gray" d="M36,-204C36,-204 798,-204 798,-204 804,-204 810,-210 810,-216 810,-216 810,-1538 810,-1538 810,-1544 804,-1550 798,-1550 798,-1550 36,-1550 36,-1550 30,-1550 24,-1544 24,-1538 24,-1538 24,-216 24,-216 24,-210 30,-204 36,-204"/>
<text text-anchor="middle" x="417" y="-1537.2" font-family="Times,serif" font-size="11.00" fill="gray">PresentationAPI</text>
</g>
<g id="clust4" class="cluster">
<title>cluster_\IIIF\PresentationAPI\Links</title>
<path fill="none" stroke="gray" d="M260.5,-1288C260.5,-1288 756,-1288 756,-1288 762,-1288 768,-1294 768,-1300 768,-1300 768,-1510 768,-1510 768,-1516 762,-1522 756,-1522 756,-1522 260.5,-1522 260.5,-1522 254.5,-1522 248.5,-1516 248.5,-1510 248.5,-1510 248.5,-1300 248.5,-1300 248.5,-1294 254.5,-1288 260.5,-1288"/>
<text text-anchor="middle" x="508.25" y="-1509.2" font-family="Times,serif" font-size="11.00" fill="gray">Links</text>
</g>
<g id="clust5" class="cluster">
<title>cluster_\IIIF\PresentationAPI\Metadata</title>
<path fill="none" stroke="gray" d="M450,-1208C450,-1208 753,-1208 753,-1208 759,-1208 765,-1214 765,-1220 765,-1220 765,-1268 765,-1268 765,-1274 759,-1280 753,-1280 753,-1280 450,-1280 450,-1280 444,-1280 438,-1274 438,-1268 438,-1268 438,-1220 438,-1220 438,-1214 444,-1208 450,-1208"/>
<text text-anchor="middle" x="601.5" y="-1267.2" font-family="Times,serif" font-size="11.00" fill="gray">Metadata</text>
</g>
<g id="clust6" class="cluster">
<title>cluster_\IIIF\PresentationAPI\Parameters</title>
<path fill="none" stroke="gray" d="M653,-858C653,-858 790,-858 790,-858 796,-858 802,-864 802,-870 802,-870 802,-1188 802,-1188 802,-1194 796,-1200 790,-1200 790,-1200 653,-1200 653,-1200 647,-1200 641,-1194 641,-1188 641,-1188 641,-870 641,-870 641,-864 647,-858 653,-858"/>
<text text-anchor="middle" x="721.5" y="-1187.2" font-family="Times,serif" font-size="11.00" fill="gray">Parameters</text>
</g>
<g id="clust7" class="cluster">
<title>cluster_\IIIF\PresentationAPI\Properties</title>
<path fill="none" stroke="gray" d="M44,-724C44,-724 756,-724 756,-724 762,-724 768,-730 768,-736 768,-736 768,-838 768,-838 768,-844 762,-850 756,-850 756,-850 44,-850 44,-850 38,-850 32,-844 32,-838 32,-838 32,-736 32,-736 32,-730 38,-724 44,-724"/>
<text text-anchor="middle" x="400" y="-837.2" font-family="Times,serif" font-size="11.00" fill="gray">Properties</text>
</g>
<g id="clust8" class="cluster">
<title>cluster_\IIIF\PresentationAPI\Resources</title>
<path fill="none" stroke="gray" d="M247,-212C247,-212 773,-212 773,-212 779,-212 785,-218 785,-224 785,-224 785,-704 785,-704 785,-710 779,-716 773,-716 773,-716 247,-716 247,-716 241,-716 235,-710 235,-704 235,-704 235,-224 235,-224 235,-218 241,-212 247,-212"/>
<text text-anchor="middle" x="510" y="-703.2" font-family="Times,serif" font-size="11.00" fill="gray">Resources</text>
</g>
<g id="clust9" class="cluster">
<title>cluster_\IIIF\Utils</title>
<path fill="none" stroke="gray" d="M676.5,-70C676.5,-70 766.5,-70 766.5,-70 772.5,-70 778.5,-76 778.5,-82 778.5,-82 778.5,-184 778.5,-184 778.5,-190 772.5,-196 766.5,-196 766.5,-196 676.5,-196 676.5,-196 670.5,-196 664.5,-190 664.5,-184 664.5,-184 664.5,-82 664.5,-82 664.5,-76 670.5,-70 676.5,-70"/>
<text text-anchor="middle" x="721.5" y="-183.2" font-family="Times,serif" font-size="11.00" fill="gray">Utils</text>
</g>
<!-- \\IIIF\\PresentationAPI\\Links\\LinkAbstract -->
<g id="node1" class="node">
<title>\\IIIF\\PresentationAPI\\Links\\LinkAbstract</title>
<polygon fill="none" stroke="black" points="560.5,-1413 462.5,-1413 462.5,-1377 560.5,-1377 560.5,-1413"/>
<text text-anchor="start" x="477.5" y="-1398.2" font-family="Courier,monospace" font-size="11.00">«abstract»</text>
<text text-anchor="start" x="470.5" y="-1386.2" font-family="Courier,monospace" font-size="11.00">LinkAbstract</text>
</g>
<!-- \\IIIF\\PresentationAPI\\Links\\LinkInterface -->
<g id="node6" class="node">
<title>\\IIIF\\PresentationAPI\\Links\\LinkInterface</title>
<polygon fill="none" stroke="black" points="360.5,-1413 256.5,-1413 256.5,-1377 360.5,-1377 360.5,-1413"/>
<text text-anchor="middle" x="308.5" y="-1392.2" font-family="Courier,monospace" font-size="11.00">LinkInterface</text>
</g>
<!-- \\IIIF\\PresentationAPI\\Links\\LinkAbstract&#45;&gt;\\IIIF\\PresentationAPI\\Links\\LinkInterface -->
<g id="edge1" class="edge">
<title>\\IIIF\\PresentationAPI\\Links\\LinkAbstract&#45;&gt;\\IIIF\\PresentationAPI\\Links\\LinkInterface</title>
<path fill="none" stroke="black" stroke-dasharray="1,5" d="M462.36,-1395C434.93,-1395 400.28,-1395 370.91,-1395"/>
<polygon fill="none" stroke="black" points="370.77,-1391.5 360.77,-1395 370.77,-1398.5 370.77,-1391.5"/>
</g>
<!-- \\IIIF\\PresentationAPI\\Links\\Related -->
<g id="node2" class="node">
<title>\\IIIF\\PresentationAPI\\Links\\Related</title>
<polygon fill="none" stroke="black" points="753.5,-1494 689.5,-1494 689.5,-1458 753.5,-1458 753.5,-1494"/>
<text text-anchor="middle" x="721.5" y="-1473.2" font-family="Courier,monospace" font-size="11.00">Related</text>
</g>
<!-- \\IIIF\\PresentationAPI\\Links\\Related&#45;&gt;\\IIIF\\PresentationAPI\\Links\\LinkAbstract -->
<g id="edge2" class="edge">
<title>\\IIIF\\PresentationAPI\\Links\\Related&#45;&gt;\\IIIF\\PresentationAPI\\Links\\LinkAbstract</title>
<path fill="none" stroke="black" d="M689.36,-1465.99C674.61,-1461.1 656.81,-1455 641,-1449 614.95,-1439.12 586.34,-1427.2 562.74,-1417.08"/>
<polygon fill="none" stroke="black" points="563.86,-1413.75 553.29,-1413.01 561.09,-1420.18 563.86,-1413.75"/>
</g>
<!-- \\IIIF\\PresentationAPI\\Links\\Rendering -->
<g id="node3" class="node">
<title>\\IIIF\\PresentationAPI\\Links\\Rendering</title>
<polygon fill="none" stroke="black" points="760,-1440 683,-1440 683,-1404 760,-1404 760,-1440"/>
<text text-anchor="middle" x="721.5" y="-1419.2" font-family="Courier,monospace" font-size="11.00">Rendering</text>
</g>
<!-- \\IIIF\\PresentationAPI\\Links\\Rendering&#45;&gt;\\IIIF\\PresentationAPI\\Links\\LinkAbstract -->
<g id="edge3" class="edge">
<title>\\IIIF\\PresentationAPI\\Links\\Rendering&#45;&gt;\\IIIF\\PresentationAPI\\Links\\LinkAbstract</title>
<path fill="none" stroke="black" d="M682.83,-1417.11C651.61,-1413.06 606.71,-1407.23 570.84,-1402.57"/>
<polygon fill="none" stroke="black" points="570.87,-1399.05 560.5,-1401.23 569.97,-1405.99 570.87,-1399.05"/>
</g>
<!-- \\IIIF\\PresentationAPI\\Links\\SeeAlso -->
<g id="node4" class="node">
<title>\\IIIF\\PresentationAPI\\Links\\SeeAlso</title>
<polygon fill="none" stroke="black" points="753.5,-1386 689.5,-1386 689.5,-1350 753.5,-1350 753.5,-1386"/>
<text text-anchor="middle" x="721.5" y="-1365.2" font-family="Courier,monospace" font-size="11.00">SeeAlso</text>
</g>
<!-- \\IIIF\\PresentationAPI\\Links\\SeeAlso&#45;&gt;\\IIIF\\PresentationAPI\\Links\\LinkAbstract -->
<g id="edge4" class="edge">
<title>\\IIIF\\PresentationAPI\\Links\\SeeAlso&#45;&gt;\\IIIF\\PresentationAPI\\Links\\LinkAbstract</title>
<path fill="none" stroke="black" d="M689.36,-1372.04C658.15,-1376.09 609.35,-1382.43 570.91,-1387.42"/>
<polygon fill="none" stroke="black" points="570.34,-1383.96 560.87,-1388.72 571.24,-1390.9 570.34,-1383.96"/>
</g>
<!-- \\IIIF\\PresentationAPI\\Links\\Service -->
<g id="node5" class="node">
<title>\\IIIF\\PresentationAPI\\Links\\Service</title>
<polygon fill="none" stroke="black" points="753.5,-1332 689.5,-1332 689.5,-1296 753.5,-1296 753.5,-1332"/>
<text text-anchor="middle" x="721.5" y="-1311.2" font-family="Courier,monospace" font-size="11.00">Service</text>
</g>
<!-- \\IIIF\\PresentationAPI\\Links\\Service&#45;&gt;\\IIIF\\PresentationAPI\\Links\\LinkAbstract -->
<g id="edge5" class="edge">
<title>\\IIIF\\PresentationAPI\\Links\\Service&#45;&gt;\\IIIF\\PresentationAPI\\Links\\LinkAbstract</title>
<path fill="none" stroke="black" d="M689.36,-1324.01C674.61,-1328.9 656.81,-1335 641,-1341 614.95,-1350.88 586.34,-1362.8 562.74,-1372.92"/>
<polygon fill="none" stroke="black" points="561.09,-1369.82 553.29,-1376.99 563.86,-1376.25 561.09,-1369.82"/>
</g>
<!-- \\IIIF\\PresentationAPI\\Metadata\\Metadata -->
<g id="node7" class="node">
<title>\\IIIF\\PresentationAPI\\Metadata\\Metadata</title>
<polygon fill="none" stroke="black" points="757,-1252 686,-1252 686,-1216 757,-1216 757,-1252"/>
<text text-anchor="middle" x="721.5" y="-1231.2" font-family="Courier,monospace" font-size="11.00">Metadata</text>
</g>
<!-- \\IIIF\\PresentationAPI\\Metadata\\MetadataInterface -->
<g id="node8" class="node">
<title>\\IIIF\\PresentationAPI\\Metadata\\MetadataInterface</title>
<polygon fill="none" stroke="black" points="577,-1252 446,-1252 446,-1216 577,-1216 577,-1252"/>
<text text-anchor="middle" x="511.5" y="-1231.2" font-family="Courier,monospace" font-size="11.00">MetadataInterface</text>
</g>
<!-- \\IIIF\\PresentationAPI\\Metadata\\Metadata&#45;&gt;\\IIIF\\PresentationAPI\\Metadata\\MetadataInterface -->
<g id="edge6" class="edge">
<title>\\IIIF\\PresentationAPI\\Metadata\\Metadata&#45;&gt;\\IIIF\\PresentationAPI\\Metadata\\MetadataInterface</title>
<path fill="none" stroke="black" stroke-dasharray="1,5" d="M685.69,-1234C658.96,-1234 621.08,-1234 587.56,-1234"/>
<polygon fill="none" stroke="black" points="587.31,-1230.5 577.31,-1234 587.31,-1237.5 587.31,-1230.5"/>
</g>
<!-- \\IIIF\\PresentationAPI\\Parameters\\DCType -->
<g id="node9" class="node">
<title>\\IIIF\\PresentationAPI\\Parameters\\DCType</title>
<polygon fill="none" stroke="black" points="750,-1172 693,-1172 693,-1136 750,-1136 750,-1172"/>
<text text-anchor="middle" x="721.5" y="-1151.2" font-family="Courier,monospace" font-size="11.00">DCType</text>
</g>
<!-- \\IIIF\\PresentationAPI\\Parameters\\Identifier -->
<g id="node10" class="node">
<title>\\IIIF\\PresentationAPI\\Parameters\\Identifier</title>
<polygon fill="none" stroke="black" points="763.5,-1118 679.5,-1118 679.5,-1082 763.5,-1082 763.5,-1118"/>
<text text-anchor="middle" x="721.5" y="-1097.2" font-family="Courier,monospace" font-size="11.00">Identifier</text>
</g>
<!-- \\IIIF\\PresentationAPI\\Parameters\\ImageProfileSupport -->
<g id="node11" class="node">
<title>\\IIIF\\PresentationAPI\\Parameters\\ImageProfileSupport</title>
<polygon fill="none" stroke="black" points="794,-1064 649,-1064 649,-1028 794,-1028 794,-1064"/>
<text text-anchor="middle" x="721.5" y="-1043.2" font-family="Courier,monospace" font-size="11.00">ImageProfileSupport</text>
</g>
<!-- \\IIIF\\PresentationAPI\\Parameters\\Paging -->
<g id="node12" class="node">
<title>\\IIIF\\PresentationAPI\\Parameters\\Paging</title>
<polygon fill="none" stroke="black" points="750,-1010 693,-1010 693,-974 750,-974 750,-1010"/>
<text text-anchor="middle" x="721.5" y="-989.2" font-family="Courier,monospace" font-size="11.00">Paging</text>
</g>
<!-- \\IIIF\\PresentationAPI\\Parameters\\ViewingDirection -->
<g id="node13" class="node">
<title>\\IIIF\\PresentationAPI\\Parameters\\ViewingDirection</title>
<polygon fill="none" stroke="black" points="784,-956 659,-956 659,-920 784,-920 784,-956"/>
<text text-anchor="middle" x="721.5" y="-935.2" font-family="Courier,monospace" font-size="11.00">ViewingDirection</text>
</g>
<!-- \\IIIF\\PresentationAPI\\Parameters\\ViewingHint -->
<g id="node14" class="node">
<title>\\IIIF\\PresentationAPI\\Parameters\\ViewingHint</title>
<polygon fill="none" stroke="black" points="767,-902 676,-902 676,-866 767,-866 767,-902"/>
<text text-anchor="middle" x="721.5" y="-881.2" font-family="Courier,monospace" font-size="11.00">ViewingHint</text>
</g>
<!-- \\IIIF\\PresentationAPI\\Properties\\Logo -->
<g id="node15" class="node">
<title>\\IIIF\\PresentationAPI\\Properties\\Logo</title>
<polygon fill="none" stroke="black" points="748.5,-822 694.5,-822 694.5,-786 748.5,-786 748.5,-822"/>
<text text-anchor="middle" x="721.5" y="-801.2" font-family="Courier,monospace" font-size="11.00">Logo</text>
</g>
<!-- \\IIIF\\PresentationAPI\\Properties\\MimeAbstract -->
<g id="node16" class="node">
<title>\\IIIF\\PresentationAPI\\Properties\\MimeAbstract</title>
<polygon fill="none" stroke="black" points="560.5,-795 462.5,-795 462.5,-759 560.5,-759 560.5,-795"/>
<text text-anchor="start" x="477.5" y="-780.2" font-family="Courier,monospace" font-size="11.00">«abstract»</text>
<text text-anchor="start" x="470.5" y="-768.2" font-family="Courier,monospace" font-size="11.00">MimeAbstract</text>
</g>
<!-- \\IIIF\\PresentationAPI\\Properties\\Logo&#45;&gt;\\IIIF\\PresentationAPI\\Properties\\MimeAbstract -->
<g id="edge7" class="edge">
<title>\\IIIF\\PresentationAPI\\Properties\\Logo&#45;&gt;\\IIIF\\PresentationAPI\\Properties\\MimeAbstract</title>
<path fill="none" stroke="black" d="M694.16,-800.58C663.32,-796.58 611.32,-789.83 570.84,-784.57"/>
<polygon fill="none" stroke="black" points="571.18,-781.09 560.81,-783.27 570.28,-788.03 571.18,-781.09"/>
</g>
<!-- \\IIIF\\PresentationAPI\\Properties\\PropertyAbstract -->
<g id="node17" class="node">
<title>\\IIIF\\PresentationAPI\\Properties\\PropertyAbstract</title>
<polygon fill="none" stroke="black" points="371,-795 246,-795 246,-759 371,-759 371,-795"/>
<text text-anchor="start" x="274.5" y="-780.2" font-family="Courier,monospace" font-size="11.00">«abstract»</text>
<text text-anchor="start" x="254" y="-768.2" font-family="Courier,monospace" font-size="11.00">PropertyAbstract</text>
</g>
<!-- \\IIIF\\PresentationAPI\\Properties\\MimeAbstract&#45;&gt;\\IIIF\\PresentationAPI\\Properties\\PropertyAbstract -->
<g id="edge8" class="edge">
<title>\\IIIF\\PresentationAPI\\Properties\\MimeAbstract&#45;&gt;\\IIIF\\PresentationAPI\\Properties\\PropertyAbstract</title>
<path fill="none" stroke="black" d="M462.36,-777C438.15,-777 408.33,-777 381.48,-777"/>
<polygon fill="none" stroke="black" points="381.35,-773.5 371.34,-777 381.34,-780.5 381.35,-773.5"/>
</g>
<!-- \\IIIF\\PresentationAPI\\Properties\\PropertyInterface -->
<g id="node19" class="node">
<title>\\IIIF\\PresentationAPI\\Properties\\PropertyInterface</title>
<polygon fill="none" stroke="black" points="171,-795 40,-795 40,-759 171,-759 171,-795"/>
<text text-anchor="middle" x="105.5" y="-774.2" font-family="Courier,monospace" font-size="11.00">PropertyInterface</text>
</g>
<!-- \\IIIF\\PresentationAPI\\Properties\\PropertyAbstract&#45;&gt;\\IIIF\\PresentationAPI\\Properties\\PropertyInterface -->
<g id="edge9" class="edge">
<title>\\IIIF\\PresentationAPI\\Properties\\PropertyAbstract&#45;&gt;\\IIIF\\PresentationAPI\\Properties\\PropertyInterface</title>
<path fill="none" stroke="black" stroke-dasharray="1,5" d="M245.83,-777C225.5,-777 202.66,-777 181.45,-777"/>
<polygon fill="none" stroke="black" points="181.19,-773.5 171.19,-777 181.19,-780.5 181.19,-773.5"/>
</g>
<!-- \\IIIF\\PresentationAPI\\Properties\\Thumbnail -->
<g id="node18" class="node">
<title>\\IIIF\\PresentationAPI\\Properties\\Thumbnail</title>
<polygon fill="none" stroke="black" points="760,-768 683,-768 683,-732 760,-732 760,-768"/>
<text text-anchor="middle" x="721.5" y="-747.2" font-family="Courier,monospace" font-size="11.00">Thumbnail</text>
</g>
<!-- \\IIIF\\PresentationAPI\\Properties\\Thumbnail&#45;&gt;\\IIIF\\PresentationAPI\\Properties\\MimeAbstract -->
<g id="edge10" class="edge">
<title>\\IIIF\\PresentationAPI\\Properties\\Thumbnail&#45;&gt;\\IIIF\\PresentationAPI\\Properties\\MimeAbstract</title>
<path fill="none" stroke="black" d="M682.83,-754.89C651.61,-758.94 606.71,-764.77 570.84,-769.43"/>
<polygon fill="none" stroke="black" points="569.97,-766.01 560.5,-770.77 570.87,-772.95 569.97,-766.01"/>
</g>
<!-- \\IIIF\\PresentationAPI\\Resources\\Annotation -->
<g id="node20" class="node">
<title>\\IIIF\\PresentationAPI\\Resources\\Annotation</title>
<polygon fill="none" stroke="black" points="763.5,-688 679.5,-688 679.5,-652 763.5,-652 763.5,-688"/>
<text text-anchor="middle" x="721.5" y="-667.2" font-family="Courier,monospace" font-size="11.00">Annotation</text>
</g>
<!-- \\IIIF\\PresentationAPI\\Resources\\ResourceAbstract -->
<g id="node28" class="node">
<title>\\IIIF\\PresentationAPI\\Resources\\ResourceAbstract</title>
<polygon fill="none" stroke="black" points="574,-472 449,-472 449,-436 574,-436 574,-472"/>
<text text-anchor="start" x="477.5" y="-457.2" font-family="Courier,monospace" font-size="11.00">«abstract»</text>
<text text-anchor="start" x="457" y="-445.2" font-family="Courier,monospace" font-size="11.00">ResourceAbstract</text>
</g>
<!-- \\IIIF\\PresentationAPI\\Resources\\Annotation&#45;&gt;\\IIIF\\PresentationAPI\\Resources\\ResourceAbstract -->
<g id="edge11" class="edge">
<title>\\IIIF\\PresentationAPI\\Resources\\Annotation&#45;&gt;\\IIIF\\PresentationAPI\\Resources\\ResourceAbstract</title>
<path fill="none" stroke="black" d="M679.2,-661.47C666.1,-657.39 652.14,-651.47 641,-643 583.68,-599.38 543.04,-522.59 524.24,-481.6"/>
<polygon fill="none" stroke="black" points="527.33,-479.92 520.04,-472.23 520.94,-482.79 527.33,-479.92"/>
</g>
<!-- \\IIIF\\PresentationAPI\\Resources\\AnnotationList -->
<g id="node21" class="node">
<title>\\IIIF\\PresentationAPI\\Resources\\AnnotationList</title>
<polygon fill="none" stroke="black" points="777,-634 666,-634 666,-598 777,-598 777,-634"/>
<text text-anchor="middle" x="721.5" y="-613.2" font-family="Courier,monospace" font-size="11.00">AnnotationList</text>
</g>
<!-- \\IIIF\\PresentationAPI\\Resources\\AnnotationList&#45;&gt;\\IIIF\\PresentationAPI\\Resources\\ResourceAbstract -->
<g id="edge12" class="edge">
<title>\\IIIF\\PresentationAPI\\Resources\\AnnotationList&#45;&gt;\\IIIF\\PresentationAPI\\Resources\\ResourceAbstract</title>
<path fill="none" stroke="black" d="M665.85,-601.37C657.2,-597.96 648.61,-593.87 641,-589 595.34,-559.82 554.43,-511.04 531.59,-480.8"/>
<polygon fill="none" stroke="black" points="534.14,-478.36 525.37,-472.42 528.52,-482.54 534.14,-478.36"/>
</g>
<!-- \\IIIF\\PresentationAPI\\Resources\\Canvas -->
<g id="node22" class="node">
<title>\\IIIF\\PresentationAPI\\Resources\\Canvas</title>
<polygon fill="none" stroke="black" points="750,-580 693,-580 693,-544 750,-544 750,-580"/>
<text text-anchor="middle" x="721.5" y="-559.2" font-family="Courier,monospace" font-size="11.00">Canvas</text>
</g>
<!-- \\IIIF\\PresentationAPI\\Resources\\Canvas&#45;&gt;\\IIIF\\PresentationAPI\\Resources\\ResourceAbstract -->
<g id="edge13" class="edge">
<title>\\IIIF\\PresentationAPI\\Resources\\Canvas&#45;&gt;\\IIIF\\PresentationAPI\\Resources\\ResourceAbstract</title>
<path fill="none" stroke="black" d="M692.64,-554.3C677.1,-549.57 657.58,-542.9 641,-535 607.14,-518.86 571.24,-495.65 546.02,-478.21"/>
<polygon fill="none" stroke="black" points="547.77,-475.16 537.56,-472.3 543.76,-480.9 547.77,-475.16"/>
</g>
<!-- \\IIIF\\PresentationAPI\\Resources\\Collection -->
<g id="node23" class="node">
<title>\\IIIF\\PresentationAPI\\Resources\\Collection</title>
<polygon fill="none" stroke="black" points="763.5,-526 679.5,-526 679.5,-490 763.5,-490 763.5,-526"/>
<text text-anchor="middle" x="721.5" y="-505.2" font-family="Courier,monospace" font-size="11.00">Collection</text>
</g>
<!-- \\IIIF\\PresentationAPI\\Resources\\Collection&#45;&gt;\\IIIF\\PresentationAPI\\Resources\\ResourceAbstract -->
<g id="edge14" class="edge">
<title>\\IIIF\\PresentationAPI\\Resources\\Collection&#45;&gt;\\IIIF\\PresentationAPI\\Resources\\ResourceAbstract</title>
<path fill="none" stroke="black" d="M679.41,-497.33C652.15,-490.26 615.67,-480.78 583.76,-472.5"/>
<polygon fill="none" stroke="black" points="584.58,-469.1 574.02,-469.97 582.82,-475.87 584.58,-469.1"/>
</g>
<!-- \\IIIF\\PresentationAPI\\Resources\\Content -->
<g id="node24" class="node">
<title>\\IIIF\\PresentationAPI\\Resources\\Content</title>
<polygon fill="none" stroke="black" points="753.5,-472 689.5,-472 689.5,-436 753.5,-436 753.5,-472"/>
<text text-anchor="middle" x="721.5" y="-451.2" font-family="Courier,monospace" font-size="11.00">Content</text>
</g>
<!-- \\IIIF\\PresentationAPI\\Resources\\Content&#45;&gt;\\IIIF\\PresentationAPI\\Resources\\ResourceAbstract -->
<g id="edge15" class="edge">
<title>\\IIIF\\PresentationAPI\\Resources\\Content&#45;&gt;\\IIIF\\PresentationAPI\\Resources\\ResourceAbstract</title>
<path fill="none" stroke="black" d="M689.36,-454C661.72,-454 620.27,-454 584.45,-454"/>
<polygon fill="none" stroke="black" points="584.02,-450.5 574.02,-454 584.02,-457.5 584.02,-450.5"/>
</g>
<!-- \\IIIF\\PresentationAPI\\Resources\\Layer -->
<g id="node25" class="node">
<title>\\IIIF\\PresentationAPI\\Resources\\Layer</title>
<polygon fill="none" stroke="black" points="748.5,-418 694.5,-418 694.5,-382 748.5,-382 748.5,-418"/>
<text text-anchor="middle" x="721.5" y="-397.2" font-family="Courier,monospace" font-size="11.00">Layer</text>
</g>
<!-- \\IIIF\\PresentationAPI\\Resources\\Layer&#45;&gt;\\IIIF\\PresentationAPI\\Resources\\ResourceAbstract -->
<g id="edge16" class="edge">
<title>\\IIIF\\PresentationAPI\\Resources\\Layer&#45;&gt;\\IIIF\\PresentationAPI\\Resources\\ResourceAbstract</title>
<path fill="none" stroke="black" d="M694.16,-406.84C666.66,-413.98 622.34,-425.48 584.36,-435.34"/>
<polygon fill="none" stroke="black" points="583.15,-432.04 574.35,-437.94 584.91,-438.82 583.15,-432.04"/>
</g>
<!-- \\IIIF\\PresentationAPI\\Resources\\Manifest -->
<g id="node26" class="node">
<title>\\IIIF\\PresentationAPI\\Resources\\Manifest</title>
<polygon fill="none" stroke="black" points="757,-364 686,-364 686,-328 757,-328 757,-364"/>
<text text-anchor="middle" x="721.5" y="-343.2" font-family="Courier,monospace" font-size="11.00">Manifest</text>
</g>
<!-- \\IIIF\\PresentationAPI\\Resources\\Manifest&#45;&gt;\\IIIF\\PresentationAPI\\Resources\\ResourceAbstract -->
<g id="edge17" class="edge">
<title>\\IIIF\\PresentationAPI\\Resources\\Manifest&#45;&gt;\\IIIF\\PresentationAPI\\Resources\\ResourceAbstract</title>
<path fill="none" stroke="black" d="M685.76,-355.84C671.58,-360.36 655.21,-366.22 641,-373 607.14,-389.14 571.24,-412.35 546.02,-429.79"/>
<polygon fill="none" stroke="black" points="543.76,-427.1 537.56,-435.7 547.77,-432.84 543.76,-427.1"/>
</g>
<!-- \\IIIF\\PresentationAPI\\Resources\\Range -->
<g id="node27" class="node">
<title>\\IIIF\\PresentationAPI\\Resources\\Range</title>
<polygon fill="none" stroke="black" points="748.5,-310 694.5,-310 694.5,-274 748.5,-274 748.5,-310"/>
<text text-anchor="middle" x="721.5" y="-289.2" font-family="Courier,monospace" font-size="11.00">Range</text>
</g>
<!-- \\IIIF\\PresentationAPI\\Resources\\Range&#45;&gt;\\IIIF\\PresentationAPI\\Resources\\ResourceAbstract -->
<g id="edge18" class="edge">
<title>\\IIIF\\PresentationAPI\\Resources\\Range&#45;&gt;\\IIIF\\PresentationAPI\\Resources\\ResourceAbstract</title>
<path fill="none" stroke="black" d="M694.39,-297.48C678.15,-301.68 657.33,-308.56 641,-319 595.34,-348.18 554.43,-396.96 531.59,-427.2"/>
<polygon fill="none" stroke="black" points="528.52,-425.46 525.37,-435.58 534.14,-429.64 528.52,-425.46"/>
</g>
<!-- \\IIIF\\PresentationAPI\\Resources\\ResourceInterface -->
<g id="node30" class="node">
<title>\\IIIF\\PresentationAPI\\Resources\\ResourceInterface</title>
<polygon fill="none" stroke="black" points="374,-472 243,-472 243,-436 374,-436 374,-472"/>
<text text-anchor="middle" x="308.5" y="-451.2" font-family="Courier,monospace" font-size="11.00">ResourceInterface</text>
</g>
<!-- \\IIIF\\PresentationAPI\\Resources\\ResourceAbstract&#45;&gt;\\IIIF\\PresentationAPI\\Resources\\ResourceInterface -->
<g id="edge19" class="edge">
<title>\\IIIF\\PresentationAPI\\Resources\\ResourceAbstract&#45;&gt;\\IIIF\\PresentationAPI\\Resources\\ResourceInterface</title>
<path fill="none" stroke="black" stroke-dasharray="1,5" d="M448.83,-454C428.5,-454 405.66,-454 384.45,-454"/>
<polygon fill="none" stroke="black" points="384.19,-450.5 374.19,-454 384.19,-457.5 384.19,-450.5"/>
</g>
<!-- \\IIIF\\PresentationAPI\\Resources\\Sequence -->
<g id="node29" class="node">
<title>\\IIIF\\PresentationAPI\\Resources\\Sequence</title>
<polygon fill="none" stroke="black" points="757,-256 686,-256 686,-220 757,-220 757,-256"/>
<text text-anchor="middle" x="721.5" y="-235.2" font-family="Courier,monospace" font-size="11.00">Sequence</text>
</g>
<!-- \\IIIF\\PresentationAPI\\Resources\\Sequence&#45;&gt;\\IIIF\\PresentationAPI\\Resources\\ResourceAbstract -->
<g id="edge20" class="edge">
<title>\\IIIF\\PresentationAPI\\Resources\\Sequence&#45;&gt;\\IIIF\\PresentationAPI\\Resources\\ResourceAbstract</title>
<path fill="none" stroke="black" d="M685.67,-244.63C670.83,-248.71 653.99,-255.11 641,-265 583.68,-308.62 543.04,-385.41 524.24,-426.4"/>
<polygon fill="none" stroke="black" points="520.94,-425.21 520.04,-435.77 527.33,-428.08 520.94,-425.21"/>
</g>
<!-- \\IIIF\\Utils\\ArrayCreator -->
<g id="node31" class="node">
<title>\\IIIF\\Utils\\ArrayCreator</title>
<polygon fill="none" stroke="black" points="770.5,-168 672.5,-168 672.5,-132 770.5,-132 770.5,-168"/>
<text text-anchor="middle" x="721.5" y="-147.2" font-family="Courier,monospace" font-size="11.00">ArrayCreator</text>
</g>
<!-- \\IIIF\\Utils\\Validator -->
<g id="node32" class="node">
<title>\\IIIF\\Utils\\Validator</title>
<polygon fill="none" stroke="black" points="760,-114 683,-114 683,-78 760,-78 760,-114"/>
<text text-anchor="middle" x="721.5" y="-93.2" font-family="Courier,monospace" font-size="11.00">Validator</text>
</g>
<!-- \\IIIF\\Generator -->
<g id="node33" class="node">
<title>\\IIIF\\Generator</title>
<polygon fill="none" stroke="black" points="760,-60 683,-60 683,-24 760,-24 760,-60"/>
<text text-anchor="middle" x="721.5" y="-39.2" font-family="Courier,monospace" font-size="11.00">Generator</text>
</g>
</g>
</svg>
